Land_normalized_precision_landing02_filtered_grf
version=1
nRows=12
nColumns=37
inDegrees=yes
endheader
time		1_ground_force_vx		1_ground_force_vy		1_ground_force_vz		1_ground_force_px		1_ground_force_py		1_ground_force_pz		1_ground_torque_x		1_ground_torque_y		1_ground_torque_z		2_ground_force_vx		2_ground_force_vy		2_ground_force_vz		2_ground_force_px		2_ground_force_py		2_ground_force_pz		2_ground_torque_x		2_ground_torque_y		2_ground_torque_z		3_ground_force_vx		3_ground_force_vy		3_ground_force_vz		3_ground_force_px		3_ground_force_py		3_ground_force_pz		3_ground_torque_x		3_ground_torque_y		3_ground_torque_z		4_ground_force_vx		4_ground_force_vy		4_ground_force_vz		4_ground_force_px		4_ground_force_py		4_ground_force_pz		4_ground_torque_x		4_ground_torque_y		4_ground_torque_z		
1.094500		-16.387444		1092.013703		273.760901		0.058228		0.000000		0.238966		-0.410489		27.353820		6.857429		129.765272		1090.875574		378.572190		-0.152466		0.000000		0.222234		9.072603		76.269108		26.468063		9.766806		-1.933666		-5.054583		0.380878		1.275590		1.884979		-0.005267		0.001043		0.002726		-4.717990		-0.854312		-0.530280		-0.351701		1.268375		1.873114		0.021579		-0.038367		-0.026722		
1.097227		-9.257147		1037.895249		262.269320		0.057100		0.000000		0.237933		-0.229480		25.727638		6.501199		112.340934		1060.765061		378.495631		-0.149681		0.000000		0.217243		8.134020		76.805164		27.405146		9.738238		-1.899640		-4.976712		0.380899		1.275603		1.884954		-0.006073		0.001184		0.003104		-4.790235		-0.834810		-0.468033		-0.351666		1.268376		1.873089		0.019938		-0.036857		-0.025577		
1.099955		-2.700365		986.837800		254.060802		0.056014		0.000000		0.237118		-0.066483		24.295060		6.254746		95.366651		1043.668634		364.753514		-0.145946		0.000000		0.215362		6.809668		74.522329		26.045022		9.722264		-1.869935		-4.906550		0.380923		1.275616		1.884923		-0.006810		0.001310		0.003437		-4.862779		-0.786051		-0.439946		-0.351634		1.268374		1.873066		0.018101		-0.033517		-0.024884		
1.102682		2.432709		938.865740		248.849569		0.055075		0.000000		0.236483		0.059431		22.939281		6.080120		83.774392		1034.782713		341.631721		-0.142650		0.000000		0.216387		5.705531		70.472068		23.266966		9.725028		-1.850324		-4.850788		0.380947		1.275626		1.884888		-0.007415		0.001411		0.003698		-4.916782		-0.714548		-0.463741		-0.351605		1.268369		1.873047		0.016227		-0.029011		-0.024717		
1.105409		5.708925		894.150197		246.027861		0.054372		0.000000		0.236034		0.137955		21.607633		5.945383		79.611960		1028.932589		314.692312		-0.140718		0.000000		0.219283		5.096595		65.870037		20.146437		9.745580		-1.845794		-4.813636		0.380974		1.275634		1.884852		-0.007911		0.001498		0.003907		-4.938729		-0.632695		-0.540207		-0.351584		1.268361		1.873024		0.014475		-0.024491		-0.024948		
1.108136		7.045960		852.914931		245.056086		0.053899		0.000000		0.235686		0.167774		20.309229		5.835136		81.844232		1021.948016		288.961007		-0.140297		0.000000		0.222767		4.938701		61.668462		17.437518		9.777844		-1.860909		-4.796313		0.381002		1.275637		1.884814		-0.008410		0.001600		0.004126		-4.924669		-0.555193		-0.652529		-0.351571		1.268356		1.872995		0.013036		-0.021256		-0.025361		
1.110864		6.654635		815.309514		245.432959		0.053567		0.000000		0.235236		0.155532		19.055101		5.736126		87.073319		1011.211309		267.941528		-0.140901		0.000000		0.225744		5.024015		58.346614		15.460361		9.811749		-1.897930		-4.796284		0.381032		1.275636		1.884775		-0.009062		0.001753		0.004430		-4.882695		-0.496242		-0.769662		-0.351566		1.268353		1.872957		0.012096		-0.020366		-0.025775		
1.113591		4.897919		781.455186		246.639487		0.053288		0.000000		0.234463		0.111611		17.806206		5.619877		91.325028		995.739805		253.114285		-0.141805		0.000000		0.227531		5.129265		55.925893		14.216239		9.832824		-1.955016		-4.809864		0.381060		1.275632		1.884736		-0.009911		0.001970		0.004848		-4.831294		-0.467231		-0.857177		-0.351567		1.268355		1.872911		0.011759		-0.022317		-0.026102		
1.116318		2.193880		751.458647		248.080942		0.053029		0.000000		0.233238		0.048254		16.521122		5.454085		91.742655		975.908083		244.152154		-0.142375		0.000000		0.227865		5.092018		54.166108		13.551251		9.822458		-2.025402		-4.834986		0.381087		1.275625		1.884697		-0.010767		0.002220		0.005300		-4.794799		-0.475113		-0.889126		-0.351573		1.268363		1.872860		0.011989		-0.026872		-0.026301		
1.119045		-1.045026		725.376480		249.145387		0.052788		0.000000		0.231605		-0.021944		15.238840		5.234066		87.620974		953.121675		239.569416		-0.142281		0.000000		0.226876		4.852658		52.786155		13.267927		9.763775		-2.099051		-4.870063		0.381110		1.275617		1.884657		-0.011214		0.002411		0.005594		-4.794566		-0.520009		-0.857697		-0.351581		1.268373		1.872806		0.012605		-0.033091		-0.026337		
1.121773		-4.469875		703.320936		249.308933		0.052593		0.000000		0.229758		-0.089355		14.064268		4.985362		80.233579		929.293923		237.667788		-0.141544		0.000000		0.224966		4.457197		51.625005		13.203154		9.650530		-2.165959		-4.910254		0.381130		1.275608		1.884616		-0.010805		0.002425		0.005498		-4.840433		-0.594208		-0.773553		-0.351586		1.268386		1.872757		0.013335		-0.039607		-0.026143		
1.124500		-7.805846		685.328510		248.230770		0.052510		0.000000		0.228008		-0.149037		13.084988		4.739474		72.034156		906.346539		237.005544		-0.140473		0.000000		0.222703		4.026745		50.665221		13.248727		9.497893		-2.218577		-4.944192		0.381147		1.275599		1.884573		-0.009378		0.002191		0.004882		-4.924695		-0.681698		-0.661589		-0.351585		1.268397		1.872715		0.013921		-0.045000		-0.025643		
